<?xml version="1.0" encoding="utf-8"?><svg viewBox="0 0 40 32" xmlns="http://www.w3.org/2000/svg" xmlns:xlink="http://www.w3.org/1999/xlink"><style>:root>svg{display:none}:root>svg:target{display:block}</style><svg viewBox="0 0 40 32" id="logo-lg" xmlns="http://www.w3.org/2000/svg"><path fill="#fff" d="M20.078 0h9.405l.004.08c.287 0 .573.004.859.018.129.055.271.052.408.068.535.108 1.082.158 1.618.268.148.049.3.087.45.133a8.65 8.65 0 011.694.677l-.047-.023c.227.119.443.262.662.396.471.307.882.625 1.264.973l-.008-.007c.221.213.476.393.648.654.321.323.585.694.853 1.061.288.416.52.868.753 1.318.114.224.178.469.297.694l.063.171c.085.212.164.469.223.734l.007.035c.02.059.04.119.062.178.041.126.077.279.101.436l.002.017c.068.284.115.616.129.955v.011c.071.313.059.637.059.956-.005.379.023.761-.051 1.136-.029.353-.049.714-.144 1.056-.01.079-.016.158-.024.238-.042.112-.072.229-.108.343 0 .03-.003.09-.004.119l-.067.084c0 .059 0 .119.005.182l-.059.079c-.054.333-.178.651-.307.961a5.327 5.327 0 01-.229.607l.014-.033c-.224.498-.464.994-.78 1.442-.187.316-.426.595-.648.885-.17.195-.353.377-.522.572-.484.45-.973.898-1.524 1.263-.22.14-.441.279-.673.401-.255.143-.539.216-.79.366l-.119.019c-.327.144-.675.231-1.005.366-.139.031-.275.074-.416.107-.27.076-.542.143-.814.214.342.437.641.906.982 1.344.733 1.008 1.475 2.01 2.195 3.026.422.547.822 1.111 1.22 1.677.126.142.234.297.346.451l.043.083c.115.135.225.285.325.442l.01.016c.61.805 1.19 1.632 1.794 2.442.263.357.5.733.786 1.071.111.176.219.327.336.47l-.007-.009c.16.232.332.455.502.68v.098h-7.076c-.182-.238-.335-.502-.511-.746-.375-.535-.74-1.082-1.112-1.621-.243-.354-.489-.706-.724-1.065-.394-.535-.732-1.115-1.133-1.646-.225-.366-.488-.707-.723-1.065-.119-.189-.255-.369-.382-.554-.319-.492-.674-.961-.987-1.457-.045-.059-.087-.122-.129-.183-.254-.347-.482-.71-.724-1.065-.407-.595-.833-1.174-1.205-1.787a1.574 1.574 0 01-.039-.07c-.054-.073-.119-.136-.178-.201.043.12.091.223.148.321l-.005-.009c.124.201.185.434.321.628.093.248.183.45.283.645l-.016-.034c.12.215.24.472.343.738l.014.042c.105.203.202.41.302.615.05.105.097.211.139.318.112.164.175.353.249.535.162.319.327.639.463.971.256.535.497 1.076.757 1.606.105.228.212.457.328.68.114.267.224.535.363.792.048.101.093.204.133.309.069.166.142.307.226.441l-.007-.012c.021.056.042.114.066.17.256.535.489 1.077.76 1.602.098.188.156.394.255.582.082.168.195.328.208.521H11.355a2.883 2.883 0 01-.149-.309l-.007-.02-.023-.112c-.088-.183-.145-.378-.227-.564a4.472 4.472 0 00-.074-.178l-.023-.115c-.15-.286-.212-.61-.371-.892l-.024-.111c-.152-.425-.329-.84-.487-1.263a4.047 4.047 0 00-.249-.634l.011.025c-.131-.308-.205-.639-.363-.934-.03-.091-.064-.178-.096-.269 3.87-.01 7.739.005 11.609-.007a8.833 8.833 0 00-.063-.246c-.108-.219-.174-.455-.281-.673a4.994 4.994 0 01-.169-.374 3.225 3.225 0 00-.298-.689l.008.016a2.111 2.111 0 00-.035-.084c-.119-.279-.202-.574-.357-.836-.035-.087-.07-.173-.102-.261-.07-.161-.125-.328-.194-.488-.165-.284-.249-.605-.396-.898-.15-.309-.256-.636-.394-.952-.119-.208-.19-.434-.281-.654-.106-.272-.247-.529-.346-.805a4.173 4.173 0 01-.1-.271l-.076-.096c-.04-.132-.095-.258-.146-.384a3.022 3.022 0 00-.152-.343l.008.017-.021-.112c-.088-.162-.163-.33-.238-.498a25.232 25.232 0 00-.53-1.244 5.65 5.65 0 00-.026-.109 13.305 13.305 0 01-.232-.5c-.14-.372-.305-.732-.463-1.096a7.463 7.463 0 00-.337-.783l.021.046c-.15-.357-.291-.724-.455-1.077a3.52 3.52 0 00-.215.389l-.01.023c-.178.334-.288.701-.476 1.032-.196.486-.416.96-.64 1.435a3.984 3.984 0 01-.069.175c-.632 1.323-1.197 2.677-1.831 3.998-.103.288-.212.53-.339.761l.014-.027-.067.186a5.328 5.328 0 00-.23.514l-.014.04a5.462 5.462 0 00-.086.171c-.123.238-.223.488-.328.735-.131.238-.222.489-.33.736-.208.357-.322.762-.53 1.122-.162.464-.429.88-.586 1.347-.161.275-.257.582-.404.864l-.034.123c-.159.23-.216.514-.368.75 0 .024-.007.073-.01.097-.055.093-.109.186-.168.277-.053.163-.11.301-.177.433l.008-.017c-.128.288-.258.575-.396.859a4.319 4.319 0 00-.068.178q-.189.387-.357.786c-.191.381-.351.776-.525 1.164-.119.2-.178.429-.297.631H.003v-.085c.043-.07.087-.137.131-.206.111-.222.213-.45.326-.671.036-.081.073-.162.105-.244.228-.416.402-.855.613-1.278l.071-.131c.112-.28.268-.538.393-.813.261-.55.511-1.107.792-1.648.092-.265.258-.494.357-.755s.238-.506.362-.758c.068-.146.137-.29.212-.431l.025-.112c.229-.297.284-.692.52-.987.084-.254.184-.473.306-.678l-.009.016c.099-.209.193-.42.297-.626.025-.059.048-.119.071-.178.156-.223.231-.488.352-.729.125-.218.214-.453.328-.677.147-.253.25-.529.391-.786q.173-.401.363-.792c.126-.238.243-.485.357-.732.256-.498.476-1.014.725-1.517.159-.315.302-.639.472-.949 0-.022.009-.065.012-.087.218-.432.428-.87.641-1.305.183-.32.271-.688.493-.986.078-.234.171-.436.282-.625l-.008.015c.116-.222.211-.453.328-.675.023-.059.043-.119.062-.181.031-.039.059-.078.093-.119.092-.2.161-.41.265-.604.146-.259.247-.542.395-.801.101-.2.193-.406.289-.608.094-.231.194-.427.308-.613l-.01.018c.045-.129.089-.233.137-.335l-.008.019c.139-.238.245-.496.366-.745.129-.214.208-.453.328-.672l.101-.189c.182-.476.438-.918.654-1.379.115-.222.204-.457.309-.683l.059-.115c.164-.326.309-.665.487-.989.087-.274.255-.508.363-.773a4.78 4.78 0 01.251-.533l-.013.026c.163-.316.301-.645.471-.958l.046-.092c.065-.143.129-.287.205-.425.004-.024.011-.074.016-.098.054-.091.108-.181.165-.27.07-.211.156-.394.26-.564l-.007.012.059-.172c.143-.209.205-.465.375-.654.246.448.445.922.657 1.387.124.242.243.488.362.737.018.056.039.111.059.167.145.273.263.56.411.833l.017.097c.125.164.184.362.265.548q.297.562.544 1.146c.079.196.17.365.276.522l-.006-.01c.054-.174.109-.316.17-.453l-.011.026c.018-.059.037-.114.059-.171.059-.119.115-.233.178-.346l.05-.171c.084-.243.175-.448.281-.644l-.011.023c.096-.261.191-.522.294-.781.043-.093.088-.185.133-.278.083-.244.178-.485.266-.727.154-.327.238-.681.396-1.006l.026-.101c.086-.161.163-.35.221-.547l.006-.022c.024-.064.051-.126.078-.189.001-.028.014-.084.02-.112zm-2.075 5.728c.093.204.189.407.293.607.128.219.184.472.331.682.032.077.059.157.096.234.087.178.165.366.258.545.064.108.121.233.164.364l.004.014c.064.14.127.281.192.42.121.207.232.447.32.698l.009.03c.07.088.126.192.161.304l.002.007c.081.162.158.327.233.492l.163.316c.062.115.119.249.163.389l.004.016c.076.148.149.297.224.446.047.1.095.199.151.294 0 .03.006.091.008.119l.102.112c.021.05.044.1.067.149l.032.124c.1.182.183.373.275.559.071.153.146.305.227.454.028.122.074.23.136.327l-.002-.004q.123.265.255.526l.074.153c.02.072.04.13.064.187l-.004-.012.115.193c.061.182.136.339.226.486l-.006-.01c.046.088.08.19.097.299l.001.005c1.972.008 3.945 0 5.918.003.211-.005.429.021.632-.051.158-.053.336.008.483-.082.127-.017.267.012.379-.065.059-.008.123-.014.184-.02.371-.142.757-.244 1.121-.403.035-.029.071-.059.107-.085.162-.079.319-.167.481-.249.056-.052.114-.101.174-.148.109-.069.202-.138.291-.213l-.004.003c.163-.137.308-.283.44-.441l.005-.005c.285-.366.546-.752.707-1.19.035-.071.071-.142.109-.211a4.66 4.66 0 01.014-.173c.059-.068.051-.161.065-.243.102-.183.052-.402.125-.595.023-.476.02-.955 0-1.431-.068-.119-.051-.26-.068-.39-.049-.125-.059-.262-.123-.381-.006-.059-.01-.119-.014-.178a6.644 6.644 0 01-.109-.205 3.275 3.275 0 00-.053-.119c-.306-.736-.854-1.353-1.497-1.809a2.549 2.549 0 01-.269-.202l.004.003a33.42 33.42 0 01-.462-.238 4.02 4.02 0 00-.412-.179l-.032-.011c-.102-.042-.207-.073-.307-.119a.556.556 0 01-.238-.061l.003.001-.124-.03c-.106-.05-.23-.036-.33-.099l-.272-.019c-.267-.099-.563-.049-.837-.126-3.532-.01-7.066 0-10.6-.004a.698.698 0 00.077.24l-.002-.004z"/></svg></svg>